{"title":"Unstoppable.Cam.XViD-DiNKY","uid":5961788,"size":665078384,"categoryP":"video","categoryS":"movies","magnet":"?xt=urn:btih:0ffa471a6e5eef2aaf55d9db41d0268463144424&amp;dn=Unstoppable.Cam.XViD-DiNKY&amp;tr=udp%3A%2F%2Ftracker.openbittorrent.com%3A80&amp;tr=udp%3A%2F%2Fopen.demonii.com%3A1337&amp;tr=udp%3A%2F%2Ftracker.coppersurfer.tk%3A6969&amp;tr=udp%3A%2F%2Fexodus.desync.com%3A6969","seeders":1,"leechers":0,"uploader":".BONE.","files":3,"time":1289980343,"description":"\nUnstoppable.Cam.XViD-DiNKY\n\nGeneral:\n\nFormat : AVI\nFormat/Info : Audio Video Interleave\nFile size : 634 MiB\nDuration : 1h 32mn\nOverall bit rate : 960 Kbps\n\nVideo:\nID : 0\nFormat : MPEG-4 Visual\nFormat profile : Advanced Simple@L5\nFormat settings, BVOP : No\nFormat settings, QPel : No\nFormat settings, GMC : No warppoints\nFormat settings, Matrix : Default (MPEG)\nCodec ID : XVID\nCodec ID/Hint : XviD\nDuration : 1h 32mn\nBit rate : 761 Kbps\nWidth : 698 pixels\nHeight : 272 pixels\nDisplay aspect ratio : 2.566\nFrame rate : 25.000 fps\nColor space : YUV\nChroma subsampling : 4:2:0\nBit depth : 8 bits\nScan type : Progressive\nBits/(Pixel*Frame) : 0.160\nStream size : 503 MiB (79%)\nWriting library : XviD 1.2.1 (UTC 2008-12-04)\n\nAudio:\nID : 1\nFormat : MPEG Audio\nFormat version : Version 1\nFormat profile : Layer 3\nCodec ID : 55\nCodec ID/Hint : MP3\nDuration : 1h 32mn\nBit rate mode : Constant\nBit rate : 192 Kbps\nChannel(s) : 2 channels\nSampling rate : 44.1 KHz\nStream size : 127 MiB (20%)\nAlignment : Split accross interleaves\nInterleave, duration : 80 ms (2.00 video frames)\n\n","torrent":{"xt":"urn:btih:0ffa471a6e5eef2aaf55d9db41d0268463144424","amp;dn":"Unstoppable.Cam.XViD-DiNKY","amp;tr":["udp%3A%2F%2Ftracker.openbittorrent.com%3A80","udp%3A%2F%2Fopen.demonii.com%3A1337","udp%3A%2F%2Ftracker.coppersurfer.tk%3A6969","udp%3A%2F%2Fexodus.desync.com%3A6969"],"infoHash":"0ffa471a6e5eef2aaf55d9db41d0268463144424","infoHashBuffer":{"type":"Buffer","data":[15,250,71,26,110,94,239,42,175,85,217,219,65,208,38,132,99,20,68,36]},"announce":[],"urlList":[]}}